<svg width="20" height="20" viewBox="0 0 20 20" fill="none" xmlns="http://www.w3.org/2000/svg">
<g id="check_circle">
<path id="Vector" d="M10.0003 1.66663C5.40033 1.66663 1.66699 5.39996 1.66699 9.99996C1.66699 14.6 5.40033 18.3333 10.0003 18.3333C14.6003 18.3333 18.3337 14.6 18.3337 9.99996C18.3337 5.39996 14.6003 1.66663 10.0003 1.66663ZM7.74199 13.575L4.75033 10.5833C4.42533 10.2583 4.42533 9.73329 4.75033 9.40829C5.07533 9.08329 5.60033 9.08329 5.92533 9.40829L8.33366 11.8083L14.067 6.07496C14.392 5.74996 14.917 5.74996 15.242 6.07496C15.567 6.39996 15.567 6.92496 15.242 7.24996L8.91699 13.575C8.60033 13.9 8.06699 13.9 7.74199 13.575Z" fill="#339F43"/>
</g>
</svg>
