<svg width="44" height="60" viewBox="0 0 44 60" fill="none" xmlns="http://www.w3.org/2000/svg">
<g id="file-06">
<g id="Icon">
<path d="M2 17C2 12.7996 2 10.6994 2.81745 9.09507C3.5365 7.68386 4.68386 6.5365 6.09507 5.81745C7.69941 5 9.79961 5 14 5H27L42 20V43C42 47.2004 42 49.3006 41.1825 50.9049C40.4635 52.3161 39.3161 53.4635 37.9049 54.1825C36.3006 55 34.2004 55 30 55H14C9.79961 55 7.69941 55 6.09507 54.1825C4.68386 53.4635 3.5365 52.3161 2.81745 50.9049C2 49.3006 2 47.2004 2 43V17Z" fill="white"/>
<path d="M17 22.5H12H17Z" fill="white"/>
<path d="M27 5.67383V16.0002C27 17.4003 27 18.1004 27.2725 18.6352C27.5122 19.1056 27.8946 19.488 28.365 19.7277C28.8998 20.0002 29.5999 20.0002 31 20.0002H41.3263M32 32.5H12M32 42.5H12M17 22.5H12M27 5H14C9.79961 5 7.69941 5 6.09507 5.81745C4.68386 6.5365 3.5365 7.68386 2.81745 9.09507C2 10.6994 2 12.7996 2 17V43C2 47.2004 2 49.3006 2.81745 50.9049C3.5365 52.3161 4.68386 53.4635 6.09507 54.1825C7.69941 55 9.79961 55 14 55H30C34.2004 55 36.3006 55 37.9049 54.1825C39.3161 53.4635 40.4635 52.3161 41.1825 50.9049C42 49.3006 42 47.2004 42 43V20L27 5Z" stroke="#339F43" stroke-width="3" stroke-linecap="round" stroke-linejoin="round"/>
</g>
</g>
</svg>
