<svg width="20" height="20" viewBox="0 0 20 20" fill="none" xmlns="http://www.w3.org/2000/svg">
<g id="mail-01">
<g id="elements">
<path id="Vector 7163" d="M1.66675 5L7.4276 8.26414C9.55141 9.46751 10.4488 9.46751 12.5726 8.26414L18.3334 5" stroke="#339F43" stroke-width="1.5" stroke-linejoin="round"/>
<path id="Vector" d="M1.67989 11.2296C1.73437 13.7843 1.76161 15.0616 2.70421 16.0078C3.64682 16.9539 4.95869 16.9869 7.58244 17.0528C9.19951 17.0935 10.8007 17.0935 12.4177 17.0528C15.0415 16.9869 16.3533 16.9539 17.296 16.0078C18.2386 15.0616 18.2658 13.7843 18.3203 11.2296C18.3378 10.4082 18.3378 9.59169 18.3203 8.77029C18.2658 6.21568 18.2386 4.93837 17.296 3.99218C16.3534 3.04599 15.0415 3.01302 12.4177 2.9471C10.8007 2.90647 9.1995 2.90647 7.58243 2.94709C4.95869 3.01301 3.64682 3.04597 2.70421 3.99217C1.7616 4.93836 1.73436 6.21566 1.67989 8.77027C1.66237 9.59168 1.66237 10.4082 1.67989 11.2296Z" stroke="#339F43" stroke-width="1.5" stroke-linejoin="round"/>
</g>
</g>
</svg>
