<svg width="16" height="17" viewBox="0 0 16 17" fill="none" xmlns="http://www.w3.org/2000/svg">
<g id="timelapse">
<path id="Vector" d="M10.8267 5.67337C10.0467 4.89337 9.02671 4.50004 8.00004 4.50004V8.50004L5.17337 11.3267C6.73337 12.8867 9.26671 12.8867 10.8334 11.3267C12.3934 9.76671 12.3934 7.23337 10.8267 5.67337ZM8.00004 1.83337C4.32004 1.83337 1.33337 4.82004 1.33337 8.50004C1.33337 12.18 4.32004 15.1667 8.00004 15.1667C11.68 15.1667 14.6667 12.18 14.6667 8.50004C14.6667 4.82004 11.68 1.83337 8.00004 1.83337ZM8.00004 13.8334C5.05337 13.8334 2.66671 11.4467 2.66671 8.50004C2.66671 5.55337 5.05337 3.16671 8.00004 3.16671C10.9467 3.16671 13.3334 5.55337 13.3334 8.50004C13.3334 11.4467 10.9467 13.8334 8.00004 13.8334Z" fill="#2A2A2A"/>
</g>
</svg>
