<svg width="25" height="25" viewBox="0 0 25 25" fill="none" xmlns="http://www.w3.org/2000/svg">
<g id="Upload">
<path id="Subtract" fill-rule="evenodd" clip-rule="evenodd" d="M12.5 2.5C10.0591 2.5 7.9608 3.95744 7.02373 6.04534C6.94011 6.23166 6.88425 6.35598 6.84206 6.44471C6.83167 6.46657 6.82326 6.48381 6.81654 6.49729L6.79677 6.49799C6.73318 6.49989 6.64598 6.5 6.5 6.5C4.29086 6.5 2.5 8.29086 2.5 10.5C2.5 12.7091 4.29086 14.5 6.5 14.5H6.67157L8.67157 12.5H6.5C5.39543 12.5 4.5 11.6046 4.5 10.5C4.5 9.39543 5.39543 8.5 6.5 8.5L6.56419 8.5001H6.5642C6.77177 8.50057 7.01342 8.50111 7.21431 8.46068C7.42683 8.41791 7.67254 8.34692 7.914 8.19062C8.15546 8.03433 8.32083 7.83923 8.44687 7.66285C8.53371 7.54134 8.60219 7.40047 8.64829 7.3035C8.70111 7.19243 8.76605 7.04772 8.84352 6.87511L8.84839 6.86427C9.47472 5.46871 10.8753 4.5 12.5 4.5C14.1247 4.5 15.5253 5.46871 16.1516 6.86427L16.1565 6.8751C16.2339 7.04771 16.2989 7.19243 16.3517 7.3035C16.3978 7.40047 16.4663 7.54134 16.5531 7.66285C16.6792 7.83923 16.8445 8.03433 17.086 8.19062C17.3275 8.34692 17.5732 8.41791 17.7857 8.46068C17.9866 8.50111 18.2282 8.50057 18.4358 8.5001H18.4358L18.5 8.5C19.6046 8.5 20.5 9.39543 20.5 10.5C20.5 11.6046 19.6046 12.5 18.5 12.5H16.3284L18.3284 14.5H18.5C20.7091 14.5 22.5 12.7091 22.5 10.5C22.5 8.29086 20.7091 6.5 18.5 6.5C18.354 6.5 18.2668 6.49989 18.2032 6.49799L18.1835 6.49729C18.1767 6.48381 18.1683 6.46657 18.1579 6.44471C18.1158 6.35598 18.0599 6.23166 17.9763 6.04534C17.0392 3.95744 14.9409 2.5 12.5 2.5ZM6.79756 6.53369C6.79755 6.53369 6.79761 6.53357 6.79774 6.53336L6.79777 6.53333L6.79756 6.53369Z" fill="#339F43"/>
<path id="Vector 10" d="M12.5 12.5L11.7929 11.7929L12.5 11.0858L13.2071 11.7929L12.5 12.5ZM13.5 21.5C13.5 22.0523 13.0523 22.5 12.5 22.5C11.9477 22.5 11.5 22.0523 11.5 21.5L13.5 21.5ZM7.79289 15.7929L11.7929 11.7929L13.2071 13.2071L9.20711 17.2071L7.79289 15.7929ZM13.2071 11.7929L17.2071 15.7929L15.7929 17.2071L11.7929 13.2071L13.2071 11.7929ZM13.5 12.5L13.5 21.5L11.5 21.5L11.5 12.5L13.5 12.5Z" fill="#339F43"/>
</g>
</svg>
